<svg xmlns="http://www.w3.org/2000/svg" width="1080" height="228" viewBox="0 0 1080 228">
  <metadata><?xpacket begin="﻿" id="W5M0MpCehiHzreSzNTczkc9d"?>
<x:xmpmeta xmlns:x="adobe:ns:meta/" x:xmptk="Adobe XMP Core 5.6-c142 79.160924, 2017/07/13-01:06:39        ">
   <rdf:RDF xmlns:rdf="http://www.w3.org/1999/02/22-rdf-syntax-ns#">
      <rdf:Description rdf:about=""/>
   </rdf:RDF>
</x:xmpmeta>
                                                                                                    
                                                                                                    
                                                                                                    
                                                                                                    
                                                                                                    
                                                                                                    
                                                                                                    
                                                                                                    
                                                                                                    
                                                                                                    
                                                                                                    
                                                                                                    
                                                                                                    
                                                                                                    
                                                                                                    
                                                                                                    
                                                                                                    
                                                                                                    
                                                                                                    
                                                                                                    
                           
<?xpacket end="w"?></metadata>
<defs>
    <style>
      .cls-1 {
        fill: #fff;
        fill-rule: evenodd;
      }
    </style>
  </defs>
  <path id="Ángel_Bravo" data-name="Ángel Bravo" class="cls-1" d="M276.722,167.469L235.24,61.864H212.124l-41.482,105.6H191.7l7.758-20.266h48.448l7.758,20.266h21.058ZM242.681,130.9h-38l19-50.348Zm9.5-100.7H236.348L214.182,53h11.875Zm92.5,137.27V113.638c0-15.675-8.234-24.541-24.7-24.541a36.18,36.18,0,0,0-26.915,12.349V91H276.438v76.472h16.625V114.112c3.8-5.224,11.083-10.291,19.632-10.291,9.342,0,15.358,3.958,15.358,15.833v47.815h16.625ZM384.846,198.5c18.841,0,39.265-7.441,39.265-34.99V91H407.487v10.608C401.312,93.53,392.6,89.1,382.946,89.1c-19.633,0-33.882,14.566-33.882,39.265,0,25.174,14.408,39.265,33.882,39.265,9.975,0,18.683-5.066,24.541-12.666v9.183c0,15.674-11.717,20.741-22.641,20.741-10.133,0-18.05-2.692-24.224-9.816L352.864,187.1C362.205,195.651,371.863,198.5,384.846,198.5Zm3.008-45.6c-13.141,0-21.533-9.817-21.533-24.541s8.392-24.541,21.533-24.541c7.758,0,15.991,4.592,19.633,10.291v28.5C403.845,148.311,395.612,152.9,387.854,152.9Zm80.7,16.466c12.192,0,23.433-3.8,31.033-11.083l-7.6-10.925c-5.383,5.383-14.25,8.392-21.691,8.392-14.408,0-23.116-9.5-24.382-21.058H504.97v-3.958c0-24.066-14.725-41.64-37.682-41.64-22.641,0-38.791,17.891-38.791,40.057C428.5,153.378,445.6,169.369,468.554,169.369Zm20.266-46.39H445.755c0.792-9.341,7.283-20.266,21.533-20.266C482.329,102.713,488.5,113.954,488.82,122.979Zm36.94,44.49V61.864H509.135v105.6H525.76Zm97.054,0c19.791,0,30.716-12.191,30.716-28.5,0-12.983-9.183-24.224-20.424-25.966,9.816-2.058,18.366-10.924,18.366-24.224,0-14.883-10.767-26.916-30.083-26.916H569.458v105.6h53.356Zm-5.225-61.906H587.982V78.172h29.607c9.5,0,14.883,5.858,14.883,13.775S627.089,105.563,617.589,105.563Zm0.792,45.6h-30.4v-29.29h30.4c10.608,0,16.15,6.649,16.15,14.566C634.531,145.62,628.514,151.161,618.381,151.161Zm58.378,16.308v-52.09c3.325-5.383,12.666-10.133,19.633-10.133a24.477,24.477,0,0,1,5.224.475V89.255c-9.974,0-19.157,5.7-24.857,12.983V91H660.135v76.472h16.624Zm88.979,0V116.8c0-20.582-14.883-27.707-31.824-27.707-12.191,0-23.274,3.958-32.14,12.349L708.582,113c6.65-6.491,14.091-9.658,22.641-9.658,10.608,0,17.891,5.383,17.891,14.25V129c-5.542-6.491-14.408-9.816-24.7-9.816-12.508,0-26.6,7.283-26.6,24.857,0,16.941,14.091,25.333,26.6,25.333,10.133,0,19-3.642,24.7-10.133v8.233h16.624Zm-34.832-9.5c-9.341,0-16.308-5.383-16.308-13.616,0-8.391,6.967-13.774,16.308-13.774,7.283,0,14.408,2.691,18.208,7.916v11.558C745.314,155.278,738.189,157.969,730.906,157.969Zm79.514,9.5L841.611,91H823.72L801.4,148.311,779.071,91H761.338l31.191,76.472H810.42Zm61.654,1.9c24.54,0,39.423-18.208,39.423-40.215,0-21.85-14.883-40.057-39.423-40.057-24.224,0-39.266,18.207-39.266,40.057C832.808,151.161,847.85,169.369,872.074,169.369Zm0-14.725c-14.091,0-22.008-11.874-22.008-25.49,0-13.458,7.917-25.333,22.008-25.333,14.249,0,22.166,11.875,22.166,25.333C894.24,142.77,886.323,154.644,872.074,154.644Z"/>
</svg>
