<svg xmlns="http://www.w3.org/2000/svg" width="1080" height="228" viewBox="0 0 1080 228">
  <metadata><?xpacket begin="﻿" id="W5M0MpCehiHzreSzNTczkc9d"?>
<x:xmpmeta xmlns:x="adobe:ns:meta/" x:xmptk="Adobe XMP Core 5.6-c142 79.160924, 2017/07/13-01:06:39        ">
   <rdf:RDF xmlns:rdf="http://www.w3.org/1999/02/22-rdf-syntax-ns#">
      <rdf:Description rdf:about=""/>
   </rdf:RDF>
</x:xmpmeta>
                                                                                                    
                                                                                                    
                                                                                                    
                                                                                                    
                                                                                                    
                                                                                                    
                                                                                                    
                                                                                                    
                                                                                                    
                                                                                                    
                                                                                                    
                                                                                                    
                                                                                                    
                                                                                                    
                                                                                                    
                                                                                                    
                                                                                                    
                                                                                                    
                                                                                                    
                                                                                                    
                           
<?xpacket end="w"?></metadata>
<defs>
    <style>
      .cls-1 {
        fill: #fff;
        fill-rule: evenodd;
      }
    </style>
  </defs>
  <path id="Ángel_Bravo" data-name="Ángel Bravo" class="cls-1" d="M207.823,167.469H219.7l13.5-24.625h38.625l4.5,24.625h11.25l-18.125-89.5h-12Zm30.625-34.625,22.875-41.875h0.5l1.75,9.625,6.25,32.25H238.448Zm21.125-62H269.2l11.625-15.875H268.948Zm54.5,42.25,1.625-9.375H305.572l-11.125,63.75h10.5l6.375-35.875a26.119,26.119,0,0,1,7.625-14.5,19.316,19.316,0,0,1,13.75-5.75q6.123,0,9.813,3.062a10.524,10.524,0,0,1,3.687,8.563,31.514,31.514,0,0,1-.75,6.25l-6.75,38.25h10.5l6.75-38a46.517,46.517,0,0,0,.875-8.875q0-8.5-5.5-13.688t-15-5.187a25.718,25.718,0,0,0-12.812,3.125,25.421,25.421,0,0,0-8.938,8.25h-0.5Zm71.386,83.375q14.25,0,23.75-7.625t12.25-23.375l10.875-61.75H422.208l-1.625,9.125h-0.5a18.019,18.019,0,0,0-7.625-8,24.691,24.691,0,0,0-12.625-3.125,33.789,33.789,0,0,0-18.812,5.312,36.106,36.106,0,0,0-12.688,14.125,41.051,41.051,0,0,0-4.5,18.938,32.188,32.188,0,0,0,3.375,14.937,24.472,24.472,0,0,0,22.25,13.688,29.421,29.421,0,0,0,13.5-2.813,24.559,24.559,0,0,0,9.125-8.062h0.5l-1.25,7q-1.752,10.248-8.125,16.125t-16.25,5.875q-6.876,0-11.125-3.438a16.226,16.226,0,0,1-5.625-8.937l-10.25,4.125a19.631,19.631,0,0,0,4.125,8.562,24.583,24.583,0,0,0,8.688,6.688,28.869,28.869,0,0,0,12.687,2.625h0Zm6.25-37.375a16.244,16.244,0,0,1-12.375-5.188q-4.875-5.185-4.875-14.312a32.337,32.337,0,0,1,3.125-14.313,24.829,24.829,0,0,1,8.875-10.187,23.705,23.705,0,0,1,13.25-3.75,16.123,16.123,0,0,1,12.5,5.375q4.875,5.376,4.875,14.375a30.222,30.222,0,0,1-3.25,13.812,26.5,26.5,0,0,1-9.062,10.313,23.022,23.022,0,0,1-13.063,3.875h0Zm71.149,10.375a34.933,34.933,0,0,0,17.5-4.313,32.918,32.918,0,0,0,12.375-12.562l-8.125-4.625a25.353,25.353,0,0,1-8.625,8.812,23.953,23.953,0,0,1-12.5,3.063,19.382,19.382,0,0,1-9-2.188,16.951,16.951,0,0,1-6.813-6.375,18.171,18.171,0,0,1-2.562-9.687q0-1.5.25-4h50.5a30.773,30.773,0,0,0,1.125-9,29.289,29.289,0,0,0-3.125-13.5,23.915,23.915,0,0,0-9.125-9.75,27.041,27.041,0,0,0-14.25-3.625,33.812,33.812,0,0,0-18.875,5.375,36.3,36.3,0,0,0-12.75,14.25,41.174,41.174,0,0,0-4.5,18.875,31.626,31.626,0,0,0,3.437,14.687,26.218,26.218,0,0,0,9.938,10.625,28.613,28.613,0,0,0,15.125,3.938h0Zm-15.75-40.625a25.617,25.617,0,0,1,8.187-12.5,20.969,20.969,0,0,1,13.938-5,18.543,18.543,0,0,1,9.25,2.187,14.9,14.9,0,0,1,5.875,5.813,15.814,15.814,0,0,1,2,7.75v1.75h-39.25Zm52.9,38.625h10.5l15.75-89.5h-10.5Zm56.374,0h33.875a35.536,35.536,0,0,0,16.125-3.625,29.114,29.114,0,0,0,11.437-9.875,24.188,24.188,0,0,0,4.188-13.75q0-12.624-12-18.75l0.125-.5a25.584,25.584,0,0,0,11.375-7.938,20.333,20.333,0,0,0,4.625-13.437,21.473,21.473,0,0,0-2.813-10.812,20.56,20.56,0,0,0-8.125-7.875,25.313,25.313,0,0,0-12.437-2.937h-30.5Zm19.5-50.75,5.125-28.625H601.88q6.375,0,9.937,3.75a13.078,13.078,0,0,1,3.563,9.375,13.844,13.844,0,0,1-5.125,11.312,19.488,19.488,0,0,1-12.75,4.188H575.88Zm-7.125,40.625,5.375-30.625h22q6.873,0,10.937,3.75a12.961,12.961,0,0,1,4.063,10,15.325,15.325,0,0,1-2.688,9.062,17.309,17.309,0,0,1-7,5.813,21.006,21.006,0,0,1-8.937,2h-23.75Zm60.012,10.125h10.5l6.25-35.625a23.22,23.22,0,0,1,4-9.563,24.631,24.631,0,0,1,7.5-7.062,17.276,17.276,0,0,1,9-2.625,15.562,15.562,0,0,1,8.625,2.125l2-11.625a18.108,18.108,0,0,0-7.375-1.25,25.562,25.562,0,0,0-12.063,3.062,18.237,18.237,0,0,0-8.312,8.313h-0.5l1.625-9.5H639.892Zm66.387,2a25.682,25.682,0,0,0,12.5-3,24.9,24.9,0,0,0,8.875-8h0.5l-1.625,9h10.125l7-38.875a39.852,39.852,0,0,0,.625-6.375q0-9.375-6.563-14.938t-18.062-5.562a35.514,35.514,0,0,0-15.125,3.187,30.49,30.49,0,0,0-11.375,8.938l8.25,5.875q6.75-8.5,17.125-8.5a17.727,17.727,0,0,1,11.187,3.437,10.913,10.913,0,0,1,4.438,9.063,21.368,21.368,0,0,1-.375,3.625l-0.75,3.75a37.085,37.085,0,0,0-8.563-3.188,40.843,40.843,0,0,0-9.812-1.187q-13.626,0-21.438,6.312t-7.812,16.938a18.167,18.167,0,0,0,2.812,9.937,19.923,19.923,0,0,0,7.625,7,21.882,21.882,0,0,0,10.438,2.563h0Zm2.375-9.375a13.386,13.386,0,0,1-8.812-2.938,9.744,9.744,0,0,1-3.563-7.937,12.009,12.009,0,0,1,4.938-10.188q4.937-3.685,12.812-3.687a35.619,35.619,0,0,1,9.75,1.125,34.782,34.782,0,0,1,7.75,3.375,24.324,24.324,0,0,1-7.875,14.562,21.8,21.8,0,0,1-15,5.688h0Zm54.363,7.375h10.875l37.25-63.75h-11.5l-28.875,51.25h-0.25l-10.625-51.25h-11.25Zm71.786,2a37.87,37.87,0,0,0,19.375-4.938,34.508,34.508,0,0,0,13.188-13.5,38.773,38.773,0,0,0,4.687-18.937,32.39,32.39,0,0,0-3.687-15.438,27.747,27.747,0,0,0-10.313-10.937,28.694,28.694,0,0,0-15.125-4,37.744,37.744,0,0,0-19.5,5,34.951,34.951,0,0,0-13.187,13.562,38.54,38.54,0,0,0-4.688,18.813,32.358,32.358,0,0,0,3.688,15.437,27.576,27.576,0,0,0,10.375,10.938,29.009,29.009,0,0,0,15.187,4h0Zm1.125-9.625a18.585,18.585,0,0,1-17.125-10.375,23.737,23.737,0,0,1-2.5-11,28.821,28.821,0,0,1,3.25-13.5,25.442,25.442,0,0,1,9.063-9.938,23.878,23.878,0,0,1,13.062-3.687,18.627,18.627,0,0,1,10.188,2.812,19.381,19.381,0,0,1,6.937,7.688,23.488,23.488,0,0,1,2.5,10.875,28.72,28.72,0,0,1-3.25,13.562,25.725,25.725,0,0,1-9,9.875,23.781,23.781,0,0,1-13.125,3.688h0Z"/>
</svg>
