<svg xmlns="http://www.w3.org/2000/svg" width="1080" height="228" viewBox="0 0 1080 228">
  <metadata><?xpacket begin="﻿" id="W5M0MpCehiHzreSzNTczkc9d"?>
<x:xmpmeta xmlns:x="adobe:ns:meta/" x:xmptk="Adobe XMP Core 5.6-c142 79.160924, 2017/07/13-01:06:39        ">
   <rdf:RDF xmlns:rdf="http://www.w3.org/1999/02/22-rdf-syntax-ns#">
      <rdf:Description rdf:about=""/>
   </rdf:RDF>
</x:xmpmeta>
                                                                                                    
                                                                                                    
                                                                                                    
                                                                                                    
                                                                                                    
                                                                                                    
                                                                                                    
                                                                                                    
                                                                                                    
                                                                                                    
                                                                                                    
                                                                                                    
                                                                                                    
                                                                                                    
                                                                                                    
                                                                                                    
                                                                                                    
                                                                                                    
                                                                                                    
                                                                                                    
                           
<?xpacket end="w"?></metadata>
<defs>
    <style>
      .cls-1 {
        fill-rule: evenodd;
      }
    </style>
  </defs>
  <path id="Peko_Inc" data-name="Peko Inc" class="cls-1" d="M310.073,151.469h14v-34.75h17a30.925,30.925,0,0,0,14.563-3.5,27.234,27.234,0,0,0,10.625-9.75,27.307,27.307,0,0,0,0-28.25,27.264,27.264,0,0,0-10.625-9.75,30.949,30.949,0,0,0-14.563-3.5h-31v89.5Zm14-48V75.344h17.25a15.423,15.423,0,0,1,8,2,13.488,13.488,0,0,1,5.125,5.25,13.893,13.893,0,0,1,0,13.5,13.907,13.907,0,0,1-5.125,5.312,15.045,15.045,0,0,1-8,2.063h-17.25Zm82.524,50q10.125,0,17.375-4.5a34.261,34.261,0,0,0,11.75-12.375l-11.625-5.5a20.168,20.168,0,0,1-6.938,7.312,18.855,18.855,0,0,1-10.187,2.688,19.162,19.162,0,0,1-12.938-4.813q-5.563-4.81-6.312-13.687H436.6a31.933,31.933,0,0,0,.375-4.375,36.686,36.686,0,0,0-3.688-16.625,27.848,27.848,0,0,0-10.75-11.625,31.764,31.764,0,0,0-16.687-4.25,30.022,30.022,0,0,0-16.5,4.625,31.951,31.951,0,0,0-11.313,12.437,36.165,36.165,0,0,0-4.062,16.938,35.575,35.575,0,0,0,4.187,17.312,30.817,30.817,0,0,0,11.625,12.063,32.537,32.537,0,0,0,16.813,4.375h0Zm-18.25-41.375a20.4,20.4,0,0,1,6.312-10.563,16.527,16.527,0,0,1,11.188-3.937,18.033,18.033,0,0,1,9.312,2.25,15.224,15.224,0,0,1,5.688,5.562,15.91,15.91,0,0,1,2.125,6.688H388.347Zm59.223,39.375h13.75v-19.75l9.375-9.125,18.75,28.875H505.82v-0.75l-25.5-37.625,24.75-24.625v-0.75H487.82L461.7,114.094H461.32V61.969H447.57v89.5Zm91.762,2a33.675,33.675,0,0,0,17.25-4.438,31.2,31.2,0,0,0,11.875-12.187,36.879,36.879,0,0,0,0-34.375,31.666,31.666,0,0,0-11.875-12.25,33.3,33.3,0,0,0-17.25-4.5,33.664,33.664,0,0,0-17.25,4.438,31.2,31.2,0,0,0-11.875,12.188,37.132,37.132,0,0,0,0,34.5,31.173,31.173,0,0,0,11.875,12.187,33.664,33.664,0,0,0,17.25,4.438h0Zm0-12.625a19.366,19.366,0,0,1-9.75-2.563,18.821,18.821,0,0,1-7.187-7.375,22.809,22.809,0,0,1-2.688-11.312,22.47,22.47,0,0,1,2.688-11.25,18.955,18.955,0,0,1,7.187-7.313,19.833,19.833,0,0,1,19.5,0,18.971,18.971,0,0,1,7.188,7.313,22.491,22.491,0,0,1,2.687,11.25,22.83,22.83,0,0,1-2.687,11.312,18.836,18.836,0,0,1-7.188,7.375,19.366,19.366,0,0,1-9.75,2.563h0Zm77.5,10.625h14v-89.5h-14v89.5Zm30.324,0h13.75v-34.5a21.154,21.154,0,0,1,2-9.125,17.048,17.048,0,0,1,5.625-6.813,13.95,13.95,0,0,1,8.25-2.562q6.5,0,10.187,3.5t3.688,11v38.5h13.75V111.094q0-11.748-6.063-18.563t-17.687-6.812a23.983,23.983,0,0,0-11.563,2.938,20.971,20.971,0,0,0-8.187,7.438H660.28V87.719H647.155v63.75Zm100.4,2q10.5,0,17.875-4.75a29.061,29.061,0,0,0,11-12.875l-12.375-5.375a17.006,17.006,0,0,1-6.562,7.687,19.1,19.1,0,0,1-10.313,2.688,17.806,17.806,0,0,1-9.437-2.625,18.749,18.749,0,0,1-6.875-7.5,23.54,23.54,0,0,1-2.563-11.125,23.178,23.178,0,0,1,2.563-11.063,18.854,18.854,0,0,1,6.875-7.437,17.8,17.8,0,0,1,9.437-2.625q11.874,0,16.125,10.125l12.625-5.25a26.125,26.125,0,0,0-10.5-12.875q-7.377-4.749-17.875-4.75a33.449,33.449,0,0,0-17.062,4.375,30.57,30.57,0,0,0-11.75,12.062,35.843,35.843,0,0,0-4.188,17.438,35.839,35.839,0,0,0,4.188,17.437,30.557,30.557,0,0,0,11.75,12.063,33.449,33.449,0,0,0,17.062,4.375h0Z"/>
</svg>
